<svg preserveAspectRatio="none" overflow="visible" style="display: block;" width="725.153" height="1068.84" viewBox="0 0 725.153 1068.84" fill="none" xmlns="http://www.w3.org/2000/svg">
<path id="Vector 1" d="M12.5342 312.127L26.3085 267.888C77.8573 102.33 234.642 -7.58222 407.855 0.40864L549.442 6.94046C609.276 9.70078 663.832 41.9963 695.033 93.1255C725.058 142.327 729.749 202.918 707.654 256.154L610.961 489.13C571.296 584.7 588.097 694.401 654.545 773.72L689.055 814.914C716.74 847.96 729.372 891.064 723.903 933.827C714.033 1011.02 648.355 1068.84 570.538 1068.84H61.6141C-27.8467 1068.84 -1.86963 910.41 35.9172 829.322L51.9252 794.969C90.6473 711.874 85.7842 615.008 38.9344 536.208C-1.24012 468.637 -10.8363 387.185 12.5342 312.127Z" fill="#FF0000"/>
</svg>
